<svg fill="#FFFFFF" id="Слой_1" data-name="Слой 1" xmlns="http://www.w3.org/2000/svg" viewBox="0 0 806 348"><title>ДСП</title><path d="M288.34,343H232.55V281.71H66V343H10.2V228.68H36.12a179.15,179.15,0,0,0,16.11-37.13,309.63,309.63,0,0,0,10-44.19q3.73-24,5.5-51.66T70.3,36.18l.79-29.47H255.34v222h33ZM196.41,228.68V59.75H125.7c0,.79-.07,1.9-.2,3.34s-.26,3-.39,4.52-.2,3.08-.2,4.51v2.95A699.7,699.7,0,0,1,116.46,159Q110,198,96.23,228.68Z"/><path d="M528.37,270.82q-5.5,2.74-12,5.47a116.92,116.92,0,0,1-15.32,5.07,149.85,149.85,0,0,1-20.43,3.71,231.47,231.47,0,0,1-26.52,1.36q-31.42,0-57.16-9a120.33,120.33,0,0,1-44-26.51q-18.27-17.49-28.28-43.42t-10-59.71q0-35.35,10-62.66t28.87-45.77q18.85-18.46,45.77-27.89T460,2a188.24,188.24,0,0,1,40.27,3.93q17.88,3.93,28.88,9l-13,49.5a146.4,146.4,0,0,0-25.53-6.28,152.65,152.65,0,0,0-22.4-2,126.37,126.37,0,0,0-37.12,5.12,74.87,74.87,0,0,0-28.68,16,72.82,72.82,0,0,0-18.66,27.56q-6.69,16.74-6.68,39.57,0,43.71,24.56,65.76t66.19,22a123.72,123.72,0,0,0,22.79-2.55,121.27,121.27,0,0,0,25.93-8Z"/><path d="M796.3,281.71H737.37v-222H632.08v222H573.15V6.71H796.3Z"/></svg>