<svg fill="white" id="Слой_1" data-name="Слой 1" xmlns="http://www.w3.org/2000/svg" viewBox="0 0 400 348"><title>Номер</title><path d="M233.54,281.71H168.32L66.57,89.21h-.39v192.5H8.83V6.71H78L176.18,194.5V6.71h57.36Zm93.11-129.25q-19.26,0-31.83-6.67A54.41,54.41,0,0,1,275,128.5a67.79,67.79,0,0,1-10.22-24,125.78,125.78,0,0,1-2.95-27.11,139.24,139.24,0,0,1,2.75-27.7,67,67,0,0,1,9.83-24.16A51.52,51.52,0,0,1,293.84,8.48Q306.21,2,325.86,2t32.41,6.48a52.56,52.56,0,0,1,20,17.09,67.75,67.75,0,0,1,10.21,24.16,129.69,129.69,0,0,1,3,27.7,125.15,125.15,0,0,1-3,27.11,65.83,65.83,0,0,1-10.41,24,56.29,56.29,0,0,1-20,17.29Q345.5,152.47,326.65,152.46Zm60.89,65.61H266.15V176.43H387.54ZM326.65,115.93q7.07,0,11.19-3.54a22.4,22.4,0,0,0,6.29-9A49.28,49.28,0,0,0,347.07,91a117.83,117.83,0,0,0,.79-13.55q0-7.08-.59-14.14a40,40,0,0,0-2.95-12.58,22.6,22.6,0,0,0-6.48-8.84q-4.12-3.33-11.19-3.33t-11.2,3.53a22.5,22.5,0,0,0-6.29,9,48.88,48.88,0,0,0-2.94,12.37,121.39,121.39,0,0,0-.79,14A117.83,117.83,0,0,0,306.22,91a43.88,43.88,0,0,0,3.14,12.38,24.13,24.13,0,0,0,6.48,9Q320,115.93,326.65,115.93Z"/></svg>